<?xml version="1.0" standalone="no"?><!DOCTYPE svg PUBLIC "-//W3C//DTD SVG 1.1//EN" "http://www.w3.org/Graphics/SVG/1.1/DTD/svg11.dtd"><svg t="1750039954693" class="icon" viewBox="0 0 1024 1024" version="1.1" xmlns="http://www.w3.org/2000/svg" p-id="5019" xmlns:xlink="http://www.w3.org/1999/xlink" width="256" height="256"><path d="M753 649.5c-67.9 0-124.7 48.1-138.3 112h-90V273.3h90c13.6 63.9 70.4 112 138.3 112 78 0 141.5-63.5 141.5-141.5S831 102.4 753 102.4c-67.9 0-124.7 48.1-138.3 112H495.3c-16.3 0-29.5 13.2-29.5 29.5V488H345.5c-13.6-63.9-70.4-112-138.3-112-78 0-141.5 63.4-141.5 141.4s63.4 141.5 141.5 141.5c67.9 0 124.7-48.1 138.3-112h120.4V791c0 16.3 13.2 29.5 29.5 29.5h119.5c13.6 63.9 70.4 112 138.3 112 78 0 141.5-63.5 141.5-141.5S831 649.5 753 649.5z m0-488.2c45.5 0 82.6 37 82.6 82.5s-37 82.6-82.6 82.6-82.5-37-82.5-82.6 37-82.5 82.5-82.5zM207.2 599.9c-45.5 0-82.5-37-82.5-82.6s37-82.5 82.5-82.5 82.6 37 82.6 82.5-37.1 82.6-82.6 82.6zM753 873.5c-45.5 0-82.5-37-82.5-82.6s37-82.5 82.5-82.5 82.6 37 82.6 82.5-37.1 82.6-82.6 82.6z" p-id="5020" fill="#d4237a"></path></svg>