<?xml version="1.0" standalone="no"?><!DOCTYPE svg PUBLIC "-//W3C//DTD SVG 1.1//EN" "http://www.w3.org/Graphics/SVG/1.1/DTD/svg11.dtd"><svg t="1749524254838" class="icon" viewBox="0 0 1024 1024" version="1.1" xmlns="http://www.w3.org/2000/svg" p-id="4619" xmlns:xlink="http://www.w3.org/1999/xlink" width="256" height="256"><path d="M544.544 365.344h128.128v128.128h-128.128v-128.128z m-192.192 0h128.128v128.128h-128.128v-128.128z m16-192.16h96.096v96.096h-96.096V173.184z m-192.192 0h96.096v96.096H176.16V173.184z m0 208.192h96.096v96.096H176.16v-96.096z m0 192.192h96.096v96.096H176.16v-96.096z m0 192.192h96.096v96.096H176.16V765.76z m576.576-384.384h96.096v96.096h-96.096v-96.096z m0 192.192h96.096v96.096h-96.096v-96.096z m0 192.192h96.096v96.096h-96.096V765.76zM560.544 173.184h96.096v96.096h-96.096V173.184zM368.352 765.76h96.096v96.096h-96.096V765.76z m192.192 0h96.096v96.096h-96.096V765.76z m192.192-592.576h96.096v96.096h-96.096V173.184z m-176.16-128.128h64.064V109.12h-64.064V45.056z m-192.192 0h64.064V109.12h-64.064V45.056z m192.192 896.864h64.064v64.064h-64.064v-64.064z m352.32-352.352h64.064v64.064h-64.064v-64.064z m0-192.192h64.064v64.064h-64.064v-64.064zM32.032 589.568h64.064v64.064H32.032v-64.064z m0-192.192h64.064v64.064H32.032v-64.064z m352.352 544.544h64.064v64.064h-64.064v-64.064z m160.16-384.384h128.128v128.128h-128.128v-128.128z m-192.192 0h128.128v128.128h-128.128v-128.128z" p-id="4620" fill="#d4237a"></path></svg>