<?xml version="1.0" standalone="no"?><!DOCTYPE svg PUBLIC "-//W3C//DTD SVG 1.1//EN" "http://www.w3.org/Graphics/SVG/1.1/DTD/svg11.dtd"><svg t="1750038979797" class="icon" viewBox="0 0 1024 1024" version="1.1" xmlns="http://www.w3.org/2000/svg" p-id="5330" xmlns:xlink="http://www.w3.org/1999/xlink" width="256" height="256"><path d="M241.28 91.733333l2.986667-2.688A39.253333 39.253333 0 0 1 299.477333 144.213333l-2.688 2.986667L147.2 296.789333a39.253333 39.253333 0 1 1-55.466667-55.509333L241.237333 91.733333zM876.757333 727.210667l2.986667-2.688a39.253333 39.253333 0 0 1 55.210667 55.210666l-2.688 2.986667-149.546667 149.546667a39.253333 39.253333 0 1 1-55.466667-55.509334l149.504-149.546666zM540.330667 129.152l2.986666-2.730667a39.253333 39.253333 0 0 1 55.210667 55.253334l-2.688 2.986666-411.221333 411.178667a39.253333 39.253333 0 1 1-55.466667-55.509333l411.178667-411.178667zM839.381333 428.16l2.986667-2.688a39.253333 39.253333 0 0 1 55.210667 55.253333l-2.688 2.986667-411.221334 411.178667a39.253333 39.253333 0 1 1-55.466666-55.509334l411.178666-411.221333zM839.381333 129.152l2.986667-2.730667a39.253333 39.253333 0 0 1 55.210667 55.253334l-2.730667 2.986666L184.618667 894.805333a39.253333 39.253333 0 1 1-55.466667-55.466666L839.338667 129.152z" p-id="5331" fill="#d4237a"></path></svg>