<?xml version="1.0" standalone="no"?><!DOCTYPE svg PUBLIC "-//W3C//DTD SVG 1.1//EN" "http://www.w3.org/Graphics/SVG/1.1/DTD/svg11.dtd"><svg t="1750039052201" class="icon" viewBox="0 0 1024 1024" version="1.1" xmlns="http://www.w3.org/2000/svg" p-id="6417" xmlns:xlink="http://www.w3.org/1999/xlink" width="256" height="256"><path d="M469.333333 256c58.88 0 112.213333 23.893333 150.826667 62.506667l-108.16 108.16 256 0 0-256-87.466667 87.466667c-53.973333-53.973333-128.64-87.466667-211.2-87.466667-150.4 0-274.56 111.36-295.253333 256l86.186667 0c19.84-97.28 105.813333-170.666667 209.066667-170.666667zM709.973333 645.76c28.373333-38.613333 47.573333-84.266667 54.613333-133.76l-86.186667 0c-19.84 97.28-105.813333 170.666667-209.066667 170.666667-58.88 0-112.213333-23.893333-150.826667-62.506667l108.16-108.16-256 0 0 256 87.466667-87.466667c53.973333 53.973333 128.64 87.466667 211.2 87.466667 66.133333 0 127.146667-21.76 176.64-58.24l207.36 207.146667 63.573333-63.573333-206.933333-207.573333z" fill="#d4237a" p-id="6418"></path></svg>